# xmcd
#
# Track frame offsets: 
#        150
#        13578
#        30045
#        47710
#        61620
#        80250
#        96005
#        110900
#        127895
#        139040
#
# Disc length: 2105 seconds
#
# Revision: 5
# Processed by: cddbd v1.5.2PL0 Copyright (c) Steve Scherf et al.
# Submitted via: ExactAudioCopy v0.99pb4
#
DISCID=6f08370a
DTITLE=Instumental Anthology - Peaceful Christmas
DYEAR=1993
DGENRE=Christmas
TTITLE0=Angels We Have Heard on High
TTITLE1=O Little Town of Bethlehem
TTITLE2=It Came Upon a Midnight Clear
TTITLE3=God Rest Ye Merry Gentlemen
TTITLE4=What Child is This?
TTITLE5=Medley: Here We Come a-Wassailing - I Saw Three Ships - Fum, Fum
TTITLE5=, Fum
TTITLE6=Silent Night
TTITLE7=The First Noel
TTITLE8=Away in a Manger
TTITLE9=O Holy Night
EXTD=
EXTT0=
EXTT1=
EXTT2=
EXTT3=
EXTT4=
EXTT5=
EXTT6=
EXTT7=
EXTT8=
EXTT9=
PLAYORDER=
